# xmcd
#
# Track frame offsets: 
#        150
#        15481
#        27897
#        42977
#        63465
#        78584
#        92443
#        109916
#        125503
#        139932
#
# Disc length: 2096 seconds
#
# Revision: 0
# Processed by: cddbd v1.5.2PL0 Copyright (c) Steve Scherf et al.
# Submitted via: ExactAudioCopyFreeDBPlugin 1.0
#
DISCID=7f082e0a
DTITLE=Cari Cari - Anaana
DYEAR=2018
DGENRE=Alternative
TTITLE0=Summer Sun
TTITLE1=Anaana
TTITLE2=Mapache
TTITLE3=Mazuka
TTITLE4=Nothing is older than yesterday
TTITLE5=Mechikko
TTITLE6=After the goldrush
TTITLE7=Dark was the night
TTITLE8=Camoubee
TTITLE9=Do not go gentle into that good night
EXTD=
EXTT0=
EXTT1=
EXTT2=
EXTT3=
EXTT4=
EXTT5=
EXTT6=
EXTT7=
EXTT8=
EXTT9=
PLAYORDER=
